<?xml version="1.0" encoding="UTF-8" standalone="no"?>
<!-- Created with Inkscape (http://www.inkscape.org/) -->

<svg
   xmlns:dc="http://purl.org/dc/elements/1.1/"
   xmlns:cc="http://creativecommons.org/ns#"
   xmlns:rdf="http://www.w3.org/1999/02/22-rdf-syntax-ns#"
   xmlns:svg="http://www.w3.org/2000/svg"
   xmlns="http://www.w3.org/2000/svg"
   xmlns:sodipodi="http://sodipodi.sourceforge.net/DTD/sodipodi-0.dtd"
   xmlns:inkscape="http://www.inkscape.org/namespaces/inkscape"
   version="1.1"
   id="svg4555"
   width="1280"
   height="720"
   viewBox="0 0 1280 720"
   sodipodi:docname="peon.svg"
   inkscape:version="0.92.1 r15371">
  <metadata
     id="metadata4561">
    <rdf:RDF>
      <cc:Work
         rdf:about="">
        <dc:format>image/svg+xml</dc:format>
        <dc:type
           rdf:resource="http://purl.org/dc/dcmitype/StillImage" />
        <dc:title />
      </cc:Work>
    </rdf:RDF>
  </metadata>
  <defs
     id="defs4559" />
  <sodipodi:namedview
     pagecolor="#ffffff"
     bordercolor="#666666"
     borderopacity="1"
     objecttolerance="10"
     gridtolerance="10"
     guidetolerance="10"
     inkscape:pageopacity="0"
     inkscape:pageshadow="2"
     inkscape:window-width="1024"
     inkscape:window-height="548"
     id="namedview4557"
     showgrid="false"
     inkscape:zoom="1.2038352"
     inkscape:cx="706.14276"
     inkscape:cy="149.09793"
     inkscape:window-x="0"
     inkscape:window-y="29"
     inkscape:window-maximized="1"
     inkscape:current-layer="svg4555"
     showguides="true"
     inkscape:guide-bbox="true" />
  <path
     style="opacity:1;fill:#ffffff;fill-opacity:0.99587456;stroke:#333333;stroke-width:17.29541397;stroke-linecap:butt;stroke-linejoin:round;stroke-miterlimit:4;stroke-dasharray:none;stroke-dashoffset:10.58267784;stroke-opacity:0.99607843;paint-order:stroke markers fill"
     id="path4652"
     sodipodi:type="arc"
     sodipodi:cx="-711.05566"
     sodipodi:cy="-677.9588"
     sodipodi:rx="251.18794"
     sodipodi:ry="222.99637"
     sodipodi:start="6.2095673"
     sodipodi:end="3.0982128"
     d="m -460.54808,-694.36052 a 251.18794,222.99637 0 0 1 -111.35446,202.05287 251.18794,222.99637 0 0 1 -252.94395,13.15125 251.18794,222.99637 0 0 1 -137.16081,-189.13189 l 250.95164,-9.67051 z"
     transform="matrix(-0.99851378,-0.05449979,0.10328007,-0.99465231,0,0)" />
  <path
     d="M 782.55569,412.09356 A 133.95618,223.85629 0 0 1 658.91928,651.79557 133.95618,223.85629 0 0 1 515.38454,445.37196 133.95618,223.85629 0 0 1 638.7969,205.34774 133.95618,223.85629 0 0 1 782.52428,411.3967 l -133.56194,17.16183 z"
     sodipodi:end="6.2064455"
     sodipodi:start="6.2095673"
     sodipodi:ry="223.85629"
     sodipodi:rx="133.95618"
     sodipodi:cy="428.55853"
     sodipodi:cx="648.96234"
     sodipodi:type="arc"
     id="path4654"
     style="opacity:1;fill:#ffffff;fill-opacity:0.99587456;stroke:#333333;stroke-width:17.2312603;stroke-linecap:butt;stroke-linejoin:round;stroke-miterlimit:4;stroke-dasharray:none;stroke-dashoffset:10.58267784;stroke-opacity:0.99607843;paint-order:stroke markers fill" />
  <path
     d="M 768.98573,130.04942 A 119.27773,125.76239 0 0 1 658.89696,264.71393 119.27773,125.76239 0 0 1 531.09025,148.74521 119.27773,125.76239 0 0 1 640.97952,13.899687 119.27773,125.76239 0 0 1 768.95776,129.65793 l -118.92669,9.64151 z"
     sodipodi:end="6.2064455"
     sodipodi:start="6.2095673"
     sodipodi:ry="125.76239"
     sodipodi:rx="119.27773"
     sodipodi:cy="139.29944"
     sodipodi:cx="650.03107"
     sodipodi:type="arc"
     id="path4656"
     style="opacity:1;fill:#ffffff;fill-opacity:0.99587456;stroke:#333333;stroke-width:17.2312603;stroke-linecap:butt;stroke-linejoin:round;stroke-miterlimit:4;stroke-dasharray:none;stroke-dashoffset:10.58267784;stroke-opacity:0.95098039;paint-order:stroke markers fill" />
  <g
     style="fill:#ffffff;fill-opacity:0.99587456;stroke:#ffffff;stroke-width:0.90288144;stroke-miterlimit:4;stroke-dasharray:none;stroke-opacity:0.99607843"
     id="g4704"
     transform="matrix(1.2316148,0,0,1,-148.98544,0)">
    <path
       sodipodi:open="true"
       d="m 704.75781,226.70271 a 62.586151,54.88113 0 0 1 -28.961,72.62977 62.586151,54.88113 0 0 1 -83.31361,-24.13961 62.586151,54.88113 0 0 1 26.08818,-73.46215 62.586151,54.88113 0 0 1 84.21318,21.60649"
       sodipodi:end="5.773811"
       sodipodi:start="5.8427783"
       sodipodi:ry="54.88113"
       sodipodi:rx="62.586151"
       sodipodi:cy="250.09895"
       sodipodi:cx="648.14374"
       sodipodi:type="arc"
       id="path4681"
       style="opacity:1;fill:#ffffff;fill-opacity:0.99587456;stroke:#ffffff;stroke-width:0.90288144;stroke-linecap:butt;stroke-linejoin:round;stroke-miterlimit:4;stroke-dasharray:none;stroke-dashoffset:10.58267784;stroke-opacity:0.99607843;paint-order:stroke markers fill" />
  </g>
  <path
     sodipodi:open="true"
     d="m 774.08029,387.36999 a 64.935287,54.88113 0 0 1 -30.04803,72.62977 64.935287,54.88113 0 0 1 -86.44074,-24.13961 64.935287,54.88113 0 0 1 27.06739,-73.46215 64.935287,54.88113 0 0 1 87.37408,21.60649"
     sodipodi:end="5.773811"
     sodipodi:start="5.8427783"
     sodipodi:ry="54.88113"
     sodipodi:rx="64.935287"
     sodipodi:cy="410.76624"
     sodipodi:cx="715.34125"
     sodipodi:type="arc"
     id="path4683"
     style="opacity:1;fill:#ffffff;fill-opacity:0.99587456;stroke:#ffffff;stroke-width:4.16579962;stroke-linecap:butt;stroke-linejoin:round;stroke-miterlimit:4;stroke-dasharray:none;stroke-dashoffset:10.58267784;stroke-opacity:0.99607843;paint-order:stroke markers fill" />
  <path
     sodipodi:open="true"
     d="M 786.83397,535.20276 A 153.88063,94.637009 0 0 1 715.62754,660.44552 153.88063,94.637009 0 0 1 510.78428,618.81918 153.88063,94.637009 0 0 1 574.92732,492.14107 153.88063,94.637009 0 0 1 781.98235,529.39929"
     sodipodi:end="5.773811"
     sodipodi:start="5.8427783"
     sodipodi:ry="94.637009"
     sodipodi:rx="153.88063"
     sodipodi:cy="575.54724"
     sodipodi:cx="647.6369"
     sodipodi:type="arc"
     id="path4685"
     style="opacity:1;fill:#ffffff;fill-opacity:0.99587456;stroke:#ffffff;stroke-width:4.16579914;stroke-linecap:butt;stroke-linejoin:round;stroke-miterlimit:4;stroke-dasharray:none;stroke-dashoffset:10.58267784;stroke-opacity:0.99607843;paint-order:stroke markers fill" />
  <g
     transform="matrix(1.2316148,0,0,1,-106.62084,-102.66549)"
     id="g4498"
     style="fill:#ffffff;fill-opacity:0.99587456;stroke:#ffffff;stroke-width:0.90288144;stroke-miterlimit:4;stroke-dasharray:none;stroke-opacity:0.99607843">
    <path
       style="opacity:1;fill:#ffffff;fill-opacity:0.99587456;stroke:#ffffff;stroke-width:0.90288144;stroke-linecap:butt;stroke-linejoin:round;stroke-miterlimit:4;stroke-dasharray:none;stroke-dashoffset:10.58267784;stroke-opacity:0.99607843;paint-order:stroke markers fill"
       id="path4496"
       sodipodi:type="arc"
       sodipodi:cx="648.14374"
       sodipodi:cy="250.09895"
       sodipodi:rx="62.586151"
       sodipodi:ry="54.88113"
       sodipodi:start="5.8427783"
       sodipodi:end="5.773811"
       d="m 704.75781,226.70271 a 62.586151,54.88113 0 0 1 -28.961,72.62977 62.586151,54.88113 0 0 1 -83.31361,-24.13961 62.586151,54.88113 0 0 1 26.08818,-73.46215 62.586151,54.88113 0 0 1 84.21318,21.60649"
       sodipodi:open="true" />
  </g>
</svg>
