<?xml version="1.0" encoding="UTF-8" standalone="no"?>
<!-- Created with Inkscape (http://www.inkscape.org/) -->

<svg
   xmlns:dc="http://purl.org/dc/elements/1.1/"
   xmlns:cc="http://creativecommons.org/ns#"
   xmlns:rdf="http://www.w3.org/1999/02/22-rdf-syntax-ns#"
   xmlns:svg="http://www.w3.org/2000/svg"
   xmlns="http://www.w3.org/2000/svg"
   xmlns:sodipodi="http://sodipodi.sourceforge.net/DTD/sodipodi-0.dtd"
   xmlns:inkscape="http://www.inkscape.org/namespaces/inkscape"
   version="1.1"
   id="svg4555"
   width="1280"
   height="720"
   viewBox="0 0 1280 720"
   sodipodi:docname="peon-negro.svg"
   inkscape:version="0.92.1 r15371">
  <metadata
     id="metadata4561">
    <rdf:RDF>
      <cc:Work
         rdf:about="">
        <dc:format>image/svg+xml</dc:format>
        <dc:type
           rdf:resource="http://purl.org/dc/dcmitype/StillImage" />
        <dc:title></dc:title>
      </cc:Work>
    </rdf:RDF>
  </metadata>
  <defs
     id="defs4559" />
  <sodipodi:namedview
     pagecolor="#ffffff"
     bordercolor="#666666"
     borderopacity="1"
     objecttolerance="10"
     gridtolerance="10"
     guidetolerance="10"
     inkscape:pageopacity="0"
     inkscape:pageshadow="2"
     inkscape:window-width="1024"
     inkscape:window-height="548"
     id="namedview4557"
     showgrid="false"
     inkscape:zoom="0.31212135"
     inkscape:cx="498.04066"
     inkscape:cy="347.10407"
     inkscape:window-x="0"
     inkscape:window-y="29"
     inkscape:window-maximized="1"
     inkscape:current-layer="svg4555"
     showguides="true"
     inkscape:guide-bbox="true" />
  <g
     id="g4892"
     transform="matrix(1.1389636,0,0,1,-88.936616,0)"
     style="stroke-width:0.9370119;stroke:#000000;fill:#000000">
    <path
       transform="matrix(-0.9980733,-0.0620459,0.09079001,-0.99587006,0,0)"
       d="m -482.33101,-688.66457 a 220.63812,222.72369 0 0 1 -97.81138,201.80581 220.63812,222.72369 0 0 1 -222.18056,13.13517 220.63812,222.72369 0 0 1 -120.47913,-188.90062 l 220.43056,-9.65869 z"
       sodipodi:end="3.0982128"
       sodipodi:start="6.2095673"
       sodipodi:ry="222.72369"
       sodipodi:rx="220.63812"
       sodipodi:cy="-672.2829"
       sodipodi:cx="-702.37152"
       sodipodi:type="arc"
       id="path4652"
       style="opacity:1;fill:#000000;fill-opacity:0.99587456;stroke:#000000;stroke-width:16.19966888;stroke-linecap:butt;stroke-linejoin:round;stroke-miterlimit:4;stroke-dasharray:none;stroke-dashoffset:10.58267784;stroke-opacity:0.99607843;paint-order:stroke markers fill" />
    <path
       style="opacity:1;fill:#000000;fill-opacity:0.99587456;stroke:#000000;stroke-width:16.145895;stroke-linecap:butt;stroke-linejoin:round;stroke-miterlimit:4;stroke-dasharray:none;stroke-dashoffset:10.58267784;stroke-opacity:0.99607843;paint-order:stroke markers fill"
       id="path4654"
       sodipodi:type="arc"
       sodipodi:cx="647.86877"
       sodipodi:cy="428.55853"
       sodipodi:rx="117.61234"
       sodipodi:ry="223.85629"
       sodipodi:start="6.2095673"
       sodipodi:end="6.2064455"
       d="M 765.16255,412.09356 A 117.61234,223.85629 0 0 1 656.61088,651.79557 117.61234,223.85629 0 0 1 530.58864,445.37196 117.61234,223.85629 0 0 1 638.94361,205.34774 117.61234,223.85629 0 0 1 765.13498,411.3967 l -117.26621,17.16183 z" />
    <path
       style="opacity:1;fill:#000000;fill-opacity:0.99587456;stroke:#000000;stroke-width:16.145895;stroke-linecap:butt;stroke-linejoin:round;stroke-miterlimit:4;stroke-dasharray:none;stroke-dashoffset:10.58267784;stroke-opacity:0.95098039;paint-order:stroke markers fill"
       id="path4656"
       sodipodi:type="arc"
       sodipodi:cx="648.80713"
       sodipodi:cy="139.29944"
       sodipodi:rx="104.72479"
       sodipodi:ry="125.76239"
       sodipodi:start="6.2095673"
       sodipodi:end="6.2064455"
       d="M 753.24827,130.04942 A 104.72479,125.76239 0 0 1 656.59131,264.71393 104.72479,125.76239 0 0 1 544.37814,148.74521 104.72479,125.76239 0 0 1 640.85995,13.899687 104.72479,125.76239 0 0 1 753.22371,129.65793 l -104.41658,9.64151 z" />
    <g
       id="g4704"
       style="fill:#000000;fill-opacity:0.99587456;stroke:#000000;stroke-width:0.93888688;stroke-miterlimit:4;stroke-dasharray:none;stroke-opacity:0.99607843">
      <path
         style="opacity:1;fill:#000000;fill-opacity:0.99587456;stroke:#000000;stroke-width:0.93888688;stroke-linecap:butt;stroke-linejoin:round;stroke-miterlimit:4;stroke-dasharray:none;stroke-dashoffset:10.58267784;stroke-opacity:0.99607843;paint-order:stroke markers fill"
         id="path4681"
         sodipodi:type="arc"
         sodipodi:cx="648.14374"
         sodipodi:cy="250.09895"
         sodipodi:rx="62.586151"
         sodipodi:ry="54.88113"
         sodipodi:start="5.8427783"
         sodipodi:end="5.773811"
         d="m 704.75781,226.70271 a 62.586151,54.88113 0 0 1 -28.961,72.62977 62.586151,54.88113 0 0 1 -83.31361,-24.13961 62.586151,54.88113 0 0 1 26.08818,-73.46215 62.586151,54.88113 0 0 1 84.21318,21.60649"
         sodipodi:open="true" />
    </g>
    <path
       style="opacity:1;fill:#000000;fill-opacity:0.99587456;stroke:#000000;stroke-width:3.90340352;stroke-linecap:butt;stroke-linejoin:round;stroke-miterlimit:4;stroke-dasharray:none;stroke-dashoffset:10.58267784;stroke-opacity:0.99607843;paint-order:stroke markers fill"
       id="path4683"
       sodipodi:type="arc"
       sodipodi:cx="706.14886"
       sodipodi:cy="410.76624"
       sodipodi:rx="57.012611"
       sodipodi:ry="54.88113"
       sodipodi:start="5.8427783"
       sodipodi:end="5.773811"
       d="m 757.72123,387.36999 a 57.012611,54.88113 0 0 1 -26.38191,72.62977 57.012611,54.88113 0 0 1 -75.89421,-24.13961 57.012611,54.88113 0 0 1 23.76493,-73.46215 57.012611,54.88113 0 0 1 76.71367,21.60649"
       sodipodi:open="true" />
    <path
       style="opacity:1;fill:#000000;fill-opacity:0.99587456;stroke:#000000;stroke-width:3.90340352;stroke-linecap:butt;stroke-linejoin:round;stroke-miterlimit:4;stroke-dasharray:none;stroke-dashoffset:10.58267784;stroke-opacity:0.99607843;paint-order:stroke markers fill"
       id="path4685"
       sodipodi:type="arc"
       sodipodi:cx="647.10907"
       sodipodi:cy="575.54724"
       sodipodi:rx="123.84016"
       sodipodi:ry="94.637009"
       sodipodi:start="5.8427783"
       sodipodi:end="5.773811"
       d="M 759.13218,535.20276 A 123.84016,94.637009 0 0 1 701.82662,660.44552 123.84016,94.637009 0 0 1 536.97273,618.81918 123.84016,94.637009 0 0 1 588.59381,492.14107 123.84016,94.637009 0 0 1 755.22769,529.39929"
       sodipodi:open="true" />
  </g>
</svg>
